<svg xmlns="http://www.w3.org/2000/svg" version="1" width="682.667" height="682.667" viewBox="0 0 512.000000 512.000000"><path d="M126 105.6c-9.1 3.2-17.5 11.8-20.4 20.9-1.5 4.5-1.6 17.3-1.4 131.5l.3 126.5 2.3 4.6c2.9 5.8 10 13 15.5 15.7 2.3 1.2 6.9 2.6 10.1 3.2 8 1.4 240.2 1.4 247.7 0 14.5-2.7 25.2-13.4 27.9-27.9 1.4-7.5 1.4-239.7 0-247.7-2-11.2-9-20.7-18.9-25.6l-4.6-2.3-127-.2c-112.9-.2-127.5 0-131.5 1.3zm247.8 150.7L374 374l-117.7-.2-117.8-.3-.3-116.5c-.1-64.1 0-117.1.3-117.8.3-1 24.4-1.2 117.7-1l117.3.3.3 117.8z"/><path d="M154.5 155.2c-.3.7-.4 19.8-.3 42.3l.3 41 42.3.3 42.2.2-.2-42.2-.3-42.3-41.8-.3c-32.9-.2-41.9 0-42.2 1zm67.3 41.5l-.3 24.8-24.7.3-24.8.2v-50h50l-.2 24.7zM273 197v17l42.3-.2 42.2-.3.3-16.8.2-16.7h-85v17zM154.5 274.3c-.3.6-.4 19.7-.3 42.2l.3 41 42.3.3 42.2.2v-85h-42c-32.8 0-42.2.3-42.5 1.3zm67.3 40.9l.2 24.8h-50v-50l24.8.2 24.7.3.3 24.7zM273.7 298.7c-.4.3-.7 8-.7 17V332h85l-.2-16.8-.3-16.7-41.6-.3c-22.8-.1-41.8.1-42.2.5zM448.5 449.2l-4 4.3 4.3-4c2.3-2.1 4.2-4 4.2-4.2 0-.8-.9 0-4.5 3.9zM440 455c-1.9 1.1-3.1 1.9-2.7 2 1.1 0 6.7-2.9 6.7-3.5 0-.7-.1-.7-4 1.5zM432.8 457.7c.6.2 1.8.2 2.5 0 .6-.3.1-.5-1.3-.5-1.4 0-1.9.2-1.2.5zM168.3 458.7c48.2.2 127.2.2 175.5 0 48.2-.1 8.7-.2-87.8-.2s-136 .1-87.7.2z"/></svg>